<svg id="Layer_1" enable-background="new 0 0 512 512" height="512" viewBox="0 0 512 512" width="512" xmlns="http://www.w3.org/2000/svg"><g><g><g><path clip-rule="evenodd" d="m113.301 504.5h328.555c8.325 0 15.144-6.803 15.144-15.109v-466.782c0-8.306-6.819-15.109-15.144-15.109h-328.555v.68l-21.394 247.806 21.394 247.834z" fill="#b3e59f" fill-rule="evenodd"/></g><g><path clip-rule="evenodd" d="m427.963 22.609v466.783c0 8.306-6.819 15.109-15.172 15.109h29.065c8.325 0 15.144-6.803 15.144-15.109v-466.783c0-8.306-6.819-15.109-15.144-15.109h-29.065c8.353 0 15.172 6.803 15.172 15.109z" fill="#95d6a4" fill-rule="evenodd"/></g><g><path clip-rule="evenodd" d="m194.673 370.307h166.011c5.853 0 10.626-4.762 10.626-10.602v-16.951c0-5.811-4.773-10.573-10.626-10.573h-166.011c-5.853 0-10.626 4.762-10.626 10.573v16.951c0 5.84 4.773 10.602 10.626 10.602z" fill="#ffe07d" fill-rule="evenodd"/></g><g><path clip-rule="evenodd" d="m194.502 208.732v31.805l83.19 17.518 83.162-17.518v-31.805c60.944-24.747 43.612-108.539-22.872-108.539h-10.427c-7.529-17.065-28.696-25.398-49.863-25.71-21.195.312-42.362 8.646-49.891 25.71h-10.427c-66.484 0-83.815 83.793-22.872 108.539z" fill="#efecff" fill-rule="evenodd"/></g><g><path clip-rule="evenodd" d="m277.693 275.573h83.218c5.711-.028 10.399-4.706 10.399-10.432v-14.173c0-5.726-4.716-10.432-10.456-10.432h-45.118-38.044-38.072-45.118c-5.739 0-10.456 4.706-10.456 10.432v14.173c0 5.698 4.688 10.432 10.399 10.432z" fill="#a9aac9" fill-rule="evenodd"/></g><g><path clip-rule="evenodd" d="m360.854 275.573h.028zm-15.115 0h15.115.028.028.028c2.443-.028 4.688-.879 6.478-2.324 0 0 0 0 .028-.028 2.33-1.899 3.864-4.819 3.864-8.079v-14.173c0-5.726-4.716-10.432-10.456-10.432h-26.906c5.739.057 10.399 4.734 10.399 10.432v14.173c0 5.698-4.688 10.375-10.314 10.432h11.708z" fill="#8080a4" fill-rule="evenodd"/></g><g><path clip-rule="evenodd" d="m335.88 220.694v19.843h4.83 20.144v-31.805c60.944-24.747 43.612-108.539-22.872-108.539h-10.427c-7.529-17.065-28.696-25.398-49.863-25.71-14.945.227-29.861 4.422-40.004 12.869 5.114-1.247 10.512-1.899 15.911-1.984 17.729.255 35.43 6.69 43.442 19.843 3.296 5.357 5.086 13.181 12.16 13.181 58.386 0 80.69 61.512 31.878 86.514-5.739 2.919-5.199 9.297-5.199 15.788z" fill="#d5cef7" fill-rule="evenodd"/></g><g><path clip-rule="evenodd" d="m332.13 370.307h28.554c5.853 0 10.626-4.762 10.626-10.602v-16.951c0-5.811-4.773-10.573-10.626-10.573h-28.554c5.853 0 10.626 4.762 10.626 10.573v16.951c0 5.84-4.773 10.602-10.626 10.602z" fill="#ffc77d" fill-rule="evenodd"/></g><g><path clip-rule="evenodd" d="m55 479.442c0 13.776 11.28 25.058 25.088 25.058h33.214v-.68-496.32h-33.214c-13.808 0-25.088 11.254-25.088 25.03z" fill="#ffe07d" fill-rule="evenodd"/></g><g><path clip-rule="evenodd" d="m80.088 7.5v496.32.68h33.213v-.68-88.13-159.704-159.705-88.101-.68z" fill="#ffc77d" fill-rule="evenodd"/></g></g><g><path d="m184.226 411.28c-4.143 0-7.5 3.357-7.5 7.5s3.357 7.5 7.5 7.5h186.797c4.143 0 7.5-3.357 7.5-7.5s-3.357-7.5-7.5-7.5z"/><path d="m456.5 245.032c4.143 0 7.5-3.357 7.5-7.5v-214.924c0-12.466-10.141-22.608-22.605-22.608h-327.739-33.131c-17.934 0-32.525 14.593-32.525 32.53v446.911c0 17.954 14.591 32.559 32.525 32.559h33.131 327.738c12.465 0 22.606-10.142 22.606-22.608v-217.248c0-4.143-3.357-7.5-7.5-7.5s-7.5 3.357-7.5 7.5v217.248c0 4.195-3.412 7.608-7.605 7.608h-320.239v-73.81h7.975c4.143 0 7.5-3.357 7.5-7.5s-3.357-7.5-7.5-7.5h-7.975v-144.705h7.975c4.143 0 7.5-3.357 7.5-7.5s-3.357-7.5-7.5-7.5h-7.975v-144.704h7.975c4.143 0 7.5-3.357 7.5-7.5s-3.357-7.5-7.5-7.5h-7.975v-73.781h320.238c4.193 0 7.605 3.413 7.605 7.608v214.924c.001 4.143 3.358 7.5 7.501 7.5zm-358.29-141.251h7.946v144.704h-7.946c-4.143 0-7.5 3.357-7.5 7.5s3.357 7.5 7.5 7.5h7.946v144.705h-7.946c-4.143 0-7.5 3.357-7.5 7.5s3.357 7.5 7.5 7.5h7.946v73.81h-25.631c-9.663 0-17.525-7.877-17.525-17.559v-446.911c0-9.666 7.862-17.53 17.525-17.53h25.631v73.781h-7.946c-4.143 0-7.5 3.357-7.5 7.5s3.357 7.5 7.5 7.5z"/><path d="m404.349 144.414c-5.04-25.744-27.578-51.721-66.57-51.721h-5.844c-10.968-18.427-34.669-25.421-54.185-25.71-.074-.002-.149-.002-.222 0-24.572.363-44.8 10.088-54.199 25.71h-5.859c-38.992 0-61.53 25.977-66.569 51.721-4.702 24.021 4.862 54.073 36.255 69.193v21.096c-6.146 2.846-10.43 9.058-10.43 16.266v14.173c0 9.888 8.043 17.932 17.93 17.932h165.938c9.886 0 17.929-8.044 17.929-17.932v-14.173c0-7.208-4.283-13.419-10.429-16.265v-21.096c31.391-15.121 40.956-45.172 36.255-69.194zm-40.827 120.728c0 1.589-1.341 2.932-2.929 2.932h-165.938c-1.588 0-2.93-1.343-2.93-2.932v-14.173c0-1.589 1.342-2.932 2.93-2.932h165.938c1.588 0 2.929 1.343 2.929 2.932zm-5.756-63.356c-2.825 1.149-4.672 3.896-4.672 6.946v24.305h-30.006v-45.196c0-4.143-3.357-7.5-7.5-7.5s-7.5 3.357-7.5 7.5v45.196h-22.963l.014-45.196c0-4.143-3.357-7.5-7.5-7.5s-7.5 3.357-7.5 7.5l-.014 45.196h-22.964v-45.196c0-4.143-3.357-7.5-7.5-7.5s-7.5 3.357-7.5 7.5v45.196h-30.006v-24.305c0-3.05-1.848-5.797-4.672-6.946-29.074-11.836-35.335-36.751-31.862-54.491 3.575-18.269 19.3-39.602 51.849-39.602h10.401c2.974 0 5.667-1.757 6.864-4.479 5.534-12.572 22.366-20.899 42.903-21.231 20.521.332 37.341 8.659 42.874 21.231 1.197 2.722 3.891 4.479 6.864 4.479h10.401c32.549 0 48.273 21.333 51.85 39.603 3.473 17.739-2.788 42.655-31.861 54.49z"/><path d="m378.522 342.755c0-9.966-8.119-18.073-18.1-18.073h-165.597c-9.98 0-18.1 8.107-18.1 18.073v16.951c0 9.981 8.119 18.102 18.1 18.102h67.963c4.143 0 7.5-3.357 7.5-7.5s-3.357-7.5-7.5-7.5h-67.963c-1.709 0-3.1-1.392-3.1-3.102v-16.951c0-1.666 1.42-3.073 3.1-3.073h165.598c1.68 0 3.1 1.407 3.1 3.073v16.951c0 1.71-1.391 3.102-3.1 3.102h-61.075c-4.143 0-7.5 3.357-7.5 7.5s3.357 7.5 7.5 7.5h61.075c9.98 0 18.1-8.12 18.1-18.102v-16.951z"/></g></g></svg>