<?xml version="1.0" encoding="iso-8859-1"?>
<!-- Generator: Adobe Illustrator 19.0.0, SVG Export Plug-In . SVG Version: 6.00 Build 0)  -->
<svg version="1.1" id="Capa_1" xmlns="http://www.w3.org/2000/svg" xmlns:xlink="http://www.w3.org/1999/xlink" x="0px" y="0px"
	 viewBox="0 0 512.003 512.003" style="enable-background:new 0 0 512.003 512.003;" xml:space="preserve">
<path style="fill:#D5DCED;" d="M327.832,240.469v38.828c0,10.722-8.692,19.414-19.414,19.414v19.414H269.59v-19.414
	c-10.722,0-19.414-8.692-19.414-19.414v-38.828H327.832z"/>
<path style="fill:#AFB9D2;" d="M327.832,240.469v38.828c0,10.722-8.692,19.414-19.414,19.414v9.707h-29.121v-9.707
	c10.722,0,19.414-8.692,19.414-19.414v-38.828H327.832z"/>
<path style="fill:#B16F52;" d="M167.52,325.567H41.621c-2.761,0-5-2.239-5-5V138.691c0-2.761,2.239-5,5-5H167.52
	c2.761,0,5,2.239,5,5v181.876C172.52,323.328,170.281,325.567,167.52,325.567z"/>
<path style="fill:#EBC9A0;" d="M475.379,313.271v165.02c0,2.681-2.173,4.854-4.854,4.854H41.475c-2.681,0-4.854-2.173-4.854-4.854
	v-165.02c0-2.681,2.173-4.854,4.854-4.854h429.051C473.206,308.418,475.379,310.591,475.379,313.271z M470.525,7.5H41.475
	c-2.681,0-4.854,2.173-4.854,4.854v126.191c0,2.681,2.173,4.854,4.854,4.854h429.051c2.681,0,4.854-2.173,4.854-4.854V12.354
	C475.379,9.673,473.206,7.5,470.525,7.5z"/>
<path style="fill:#E1B894;" d="M475.379,313.271v165.02c0,2.681-2.173,4.854-4.854,4.854h-34.298c2.68,0,4.854-2.173,4.854-4.854
	v-165.02c0-2.681-2.173-4.854-4.854-4.854h34.298C473.206,308.418,475.379,310.591,475.379,313.271z M470.525,7.5h-34.298
	c2.68,0,4.854,2.173,4.854,4.854v126.191c0,2.681-2.173,4.854-4.854,4.854h34.298c2.681,0,4.854-2.173,4.854-4.854V12.354
	C475.379,9.673,473.206,7.5,470.525,7.5z"/>
<path style="fill:#FF5050;" d="M424.609,250.176h-38.242c-5.523,0-10-4.477-10-10V182.52c0-5.523,4.477-10,10-10h38.242
	c5.523,0,10,4.477,10,10v57.656C434.609,245.699,430.132,250.176,424.609,250.176z"/>
<path style="fill:#E95050;" d="M434.609,182.227v58.242c0,5.361-4.346,9.707-9.707,9.707h-38.828c-5.361,0-9.707-4.346-9.707-9.707
	v-11.371c3.037,1.074,6.302,1.664,9.707,1.664l0,0c16.083,0,29.121-13.038,29.121-29.121V172.52h9.707
	C430.263,172.52,434.609,176.866,434.609,182.227z"/>
<path style="fill:#F7C295;" d="M114.277,206.491H94.863c-13.403,0-24.268-10.865-24.268-24.268l0,0c0-2.681,2.173-4.854,4.854-4.854
	h58.242c2.681,0,4.854,2.173,4.854,4.854l0,0C138.545,195.626,127.68,206.491,114.277,206.491z"/>
<path style="fill:#F7A676;" d="M138.545,264.736L138.545,264.736c0,18.764-15.211,33.975-33.975,33.975l0,0
	c-18.764,0-33.975-15.211-33.975-33.975l0,0c0-2.681,2.173-4.854,4.854-4.854h58.242
	C136.372,259.883,138.545,262.056,138.545,264.736z M133.691,201.641H75.449c-2.681,0-4.854,2.173-4.854,4.854l0,0
	c0,13.403,10.865,24.268,24.268,24.268h19.414c13.403,0,24.268-10.865,24.268-24.268l0,0
	C138.545,203.814,136.372,201.641,133.691,201.641z"/>
<path style="fill:#D7AF87;" d="M504.5,12.354v29.121c0,2.681-2.173,4.854-4.854,4.854H12.354c-2.681,0-4.854-2.173-4.854-4.854
	V12.354C7.5,9.673,9.673,7.5,12.354,7.5h487.293C502.327,7.5,504.5,9.673,504.5,12.354z M499.646,298.711H12.354
	c-2.681,0-4.854,2.173-4.854,4.854v29.121c0,2.681,2.173,4.854,4.854,4.854h487.293c2.681,0,4.854-2.173,4.854-4.854v-29.121
	C504.5,300.884,502.327,298.711,499.646,298.711z M499.646,465.672H12.354c-2.681,0-4.854,2.173-4.854,4.854v29.121
	c0,2.681,2.173,4.854,4.854,4.854h487.293c2.681,0,4.854-2.173,4.854-4.854v-29.121C504.5,467.845,502.327,465.672,499.646,465.672z
	"/>
<path style="fill:#C49D7A;" d="M504.5,12.354v29.121c0,2.681-2.173,4.854-4.854,4.854h-29.121c2.681,0,4.854-2.173,4.854-4.854
	V12.354c0-2.681-2.173-4.854-4.854-4.854h29.121C502.327,7.5,504.5,9.673,504.5,12.354z M499.646,298.711h-29.121
	c2.681,0,4.854,2.173,4.854,4.854v29.121c0,2.681-2.173,4.854-4.854,4.854h29.121c2.681,0,4.854-2.173,4.854-4.854v-29.121
	C504.5,300.884,502.327,298.711,499.646,298.711z M499.646,465.672h-29.121c2.681,0,4.854,2.173,4.854,4.854v29.121
	c0,2.681-2.173,4.854-4.854,4.854h29.121c2.681,0,4.854-2.173,4.854-4.854v-29.121C504.5,467.845,502.327,465.672,499.646,465.672z"
	/>
<path d="M302.328,114.277c0,4.142-3.357,7.5-7.5,7.5h-77.656c-4.142,0-7.5-3.358-7.5-7.5s3.358-7.5,7.5-7.5h77.656
	C298.971,106.777,302.328,110.135,302.328,114.277z M85.156,121.777h38.828c4.142,0,7.5-3.358,7.5-7.5s-3.358-7.5-7.5-7.5H85.156
	c-4.142,0-7.5,3.358-7.5,7.5S81.014,121.777,85.156,121.777z M221.055,368.867c-4.142,0-7.5,3.358-7.5,7.5v38.828
	c0,4.142,3.358,7.5,7.5,7.5s7.5-3.358,7.5-7.5v-38.828C228.555,372.225,225.197,368.867,221.055,368.867z M289.004,422.695
	c4.143,0,7.5-3.358,7.5-7.5v-38.828c0-4.142-3.357-7.5-7.5-7.5s-7.5,3.358-7.5,7.5v38.828
	C281.504,419.337,284.861,422.695,289.004,422.695z M386.074,121.777h38.828c4.143,0,7.5-3.358,7.5-7.5s-3.357-7.5-7.5-7.5h-38.828
	c-4.143,0-7.5,3.358-7.5,7.5S381.932,121.777,386.074,121.777z M368.867,240.176v-50.449h-2.207
	c-9.488,0-17.207-7.719-17.207-17.207v-21.621H180.02v140.313h65.446c-1.782-3.594-2.789-7.638-2.789-11.914V247.97h-2.207
	c-4.142,0-7.5-3.358-7.5-7.5s3.358-7.5,7.5-7.5h41.035v-2.207c0-4.142,3.357-7.5,7.5-7.5s7.5,3.358,7.5,7.5v2.207h41.035
	c4.143,0,7.5,3.358,7.5,7.5s-3.357,7.5-7.5,7.5h-2.207v31.328c0,4.276-1.007,8.32-2.789,11.914h167.104
	c6.812,0,12.354,5.542,12.354,12.354v29.121c0,6.812-5.542,12.354-12.354,12.354H482.88v113.133h16.768
	c6.812,0,12.354,5.542,12.354,12.354v29.121c0,6.812-5.542,12.354-12.354,12.354h-64.552c-4.143,0-7.5-3.358-7.5-7.5
	s3.357-7.5,7.5-7.5H497v-23.828H15V497h389.518c4.143,0,7.5,3.358,7.5,7.5s-3.357,7.5-7.5,7.5H12.354C5.542,512,0,506.458,0,499.646
	v-29.121c0-6.812,5.542-12.354,12.354-12.354h16.768V345.039H12.354C5.542,345.039,0,339.498,0,332.686v-29.121
	c0-6.812,5.542-12.354,12.354-12.354h16.768V138.545v-4.854V53.828H12.354C5.542,53.828,0,48.287,0,41.475V12.354
	C0,5.542,5.542,0,12.354,0h487.293C506.458,0,512,5.542,512,12.354v29.121c0,6.812-5.542,12.354-12.354,12.354h-16.768v84.717
	c0,6.812-5.542,12.354-12.354,12.354h-9.002v21.621c0,9.488-7.719,17.207-17.207,17.207h-2.207v50.449c0,9.649-7.851,17.5-17.5,17.5
	h-38.242C376.718,257.676,368.867,249.825,368.867,240.176z M427.109,182.52c0-1.378-1.121-2.5-2.5-2.5h-38.242
	c-1.379,0-2.5,1.122-2.5,2.5v57.656c0,1.378,1.121,2.5,2.5,2.5h38.242c1.379,0,2.5-1.122,2.5-2.5V182.52z M467.879,53.828H346.98
	v82.07h120.898L467.879,53.828L467.879,53.828z M44.121,53.828v79.863v2.207H165.02v-82.07h-60.45c-4.142,0-7.5-3.358-7.5-7.5
	s3.358-7.5,7.5-7.5H497V15H15v23.828h59.802c4.142,0,7.5,3.358,7.5,7.5s-3.358,7.5-7.5,7.5H44.121z M44.121,458.172H248.5V345.039
	H44.121V458.172z M467.879,345.039H263.5v113.133h204.379V345.039z M497,306.211H15v23.828h482V306.211z M104.57,291.211
	c13.706,0,25.012-10.467,26.343-23.828H78.227C79.559,280.744,90.865,291.211,104.57,291.211z M269.59,291.211h38.828
	c6.569,0,11.914-5.345,11.914-11.914v-31.328h-62.656v31.328C257.676,285.866,263.021,291.211,269.59,291.211z M165.02,291.211
	v-52.949h-50.742H94.863H44.121v52.949h28.551c-5.976-7.188-9.576-16.418-9.576-26.475c0-6.812,5.542-12.354,12.354-12.354h58.242
	c6.812,0,12.354,5.542,12.354,12.354c0,10.057-3.6,19.287-9.576,26.475H165.02z M83.042,194.141h43.057
	c0.068-0.076,0.129-0.155,0.2-0.228c2.437-2.506,4.002-5.649,4.539-9.042H78.303c0.537,3.394,2.102,6.536,4.538,9.042
	C82.912,193.986,82.974,194.065,83.042,194.141z M94.863,223.262h19.414c8.346,0,15.287-6.128,16.559-14.121H78.304
	C79.577,217.134,86.518,223.262,94.863,223.262z M165.02,150.898H44.121v72.363h23.778c-3.04-4.87-4.803-10.616-4.803-16.768
	c0-3.546,1.51-6.739,3.912-8.994c-2.548-4.634-3.912-9.857-3.912-15.276c0-6.812,5.542-12.354,12.354-12.354h58.242
	c6.812,0,12.354,5.542,12.354,12.354c0,5.42-1.363,10.643-3.912,15.276c2.401,2.255,3.912,5.448,3.912,8.994
	c0,6.152-1.763,11.897-4.803,16.768h23.778v-72.363H165.02z M180.02,135.898h151.96v-82.07H180.02V135.898z M366.66,174.727h4.061
	c2.873-5.744,8.798-9.707,15.646-9.707h38.242c6.848,0,12.773,3.963,15.646,9.707h4.061c1.217,0,2.207-0.99,2.207-2.207v-21.621
	h-82.07v21.621C364.453,173.736,365.443,174.727,366.66,174.727z"/>
<g>
</g>
<g>
</g>
<g>
</g>
<g>
</g>
<g>
</g>
<g>
</g>
<g>
</g>
<g>
</g>
<g>
</g>
<g>
</g>
<g>
</g>
<g>
</g>
<g>
</g>
<g>
</g>
<g>
</g>
</svg>
