<?xml version="1.0" encoding="UTF-8"?>
<!-- Generator: Adobe Illustrator 16.0.0, SVG Export Plug-In . SVG Version: 6.00 Build 0)  -->
<!DOCTYPE svg PUBLIC "-//W3C//DTD SVG 1.1//EN" "http://www.w3.org/Graphics/SVG/1.1/DTD/svg11.dtd">
<svg version="1.1" id="Layer_1" xmlns="http://www.w3.org/2000/svg" xmlns:xlink="http://www.w3.org/1999/xlink" x="0px" y="0px" width="864px" height="864px" viewBox="0 0 864 864" enable-background="new 0 0 864 864" xml:space="preserve">
<path fill="#FFFFFF" stroke="#000000" stroke-width="1.4428" stroke-miterlimit="10" d="M629.255,275.678  c4.937-5.043,9.812-10.362,14.588-15.938c50.924-59.457,71.236-125.62,45.364-147.78c-25.872-22.158-88.127,8.08-139.053,67.538  c-1.742,2.03-3.441,4.069-5.109,6.115c0.386-1.716,0.764-3.439,1.124-5.177c15.913-76.651,1.781-144.401-31.572-151.328  c-33.354-6.925-73.292,49.6-89.207,126.251c-2.353,11.337-4.045,22.475-5.117,33.255c-36.498,10.706-66.911,34.218-83.009,68.322  c-33.161,70.255,6.987,158.847,89.672,197.874s176.597,13.711,209.756-56.544C655.141,359.18,650.888,314.422,629.255,275.678z"/>
<g>
	<path fill="#FBCCCA" d="M439.65,183.303c26.449-2.923,54.852,0.033,82.806,9.457c3.678-9.953,6.816-20.794,9.197-32.274   c11.506-55.413,1.288-104.392-22.822-109.399c-24.113-5.006-52.983,35.857-64.49,91.27   C441.374,156.65,439.861,170.509,439.65,183.303z"/>
	<path fill="#FBCCCA" d="M548.478,206.755c23.792,11.913,46.037,29.82,64.394,52.915c8.49-6.36,17.012-13.759,25.249-22.102   c39.759-40.278,57.779-86.954,40.255-104.254c-17.525-17.3-63.963,1.329-103.722,41.607   C564.398,185.312,555.604,196.127,548.478,206.755z"/>
	<polygon fill="#FBCCCA" points="464.253,307.304 505.351,326.701 473.66,338.067  "/>
</g>
<g>
	<circle cx="470.213" cy="281.999" r="18.394"/>
	<circle cx="519.141" cy="305.091" r="18.396"/>
</g>
<path fill-rule="evenodd" clip-rule="evenodd" fill="#009444" d="M486.35,204.941c-8.11-13.947-43.584-8.449-79.229,12.282  c-2.255,1.311-4.452,2.649-6.597,4.015c14.813-39.931,27.9-97.245,15.369-102.999c-14.662-6.731-58.843,59.663-76.055,97.139  c-4.85,10.567-8.496,21.007-10.905,30.698c-3.41-12.329-8.62-25.305-15.967-37.933c-26.438-45.459-65.384-97.162-79.331-89.05  c-13.947,8.111-8.842,79.496,17.599,124.954c5.627,9.678,11.542,18.657,17.496,26.734c-13.228-7.479-28.607-14.724-45.386-21.128  c-57.508-21.944-109.481-25.703-116.088-8.395c-6.603,17.307,34.662,49.129,92.167,71.075c6.597,2.515,13.112,4.78,19.501,6.813  c-12.056,4.63-25.133,10.879-38.38,18.585c-44.425,25.838-73.863,58.091-65.752,72.039c8.113,13.948,50.703,4.31,95.128-21.529  c32.402-18.846,56.811-41.096,64.515-57.174c10.12,0.871,18.836,0.639,25.67-0.709l10.116,23.213l51.581-22.481l-15.527-35.622  c5.016-1.681,59.716-9.994,90.223-27.737C472.144,247.001,494.462,218.89,486.35,204.941z"/>
<path fill-rule="evenodd" clip-rule="evenodd" fill="#F7941E" d="M524.556,662.222c0,0-31.5,15.778-4.464-7.724  c5.512-4.793,13.918-8.635,23.888-11.7c-4.85-23.612-10.097-48.306-15.601-73.076c-24.575,4.87-45.499,9.892-45.499,9.892  s-31.499,15.777-4.463-7.725c9.363-8.141,27.08-13.54,46.629-17.049c-7.626-33.711-15.674-67.191-23.795-97.903  c-34.734,5.476-76.114,15.407-76.114,15.407s-31.5,15.778-4.464-7.727c14.121-12.276,47.229-18.318,76.99-21.038  c-3.37-12.353-6.74-24.167-10.091-35.264c-34.715,2.244-103.184,18.675-103.184,18.675s-31.5,15.776-4.464-7.726  c18.681-16.239,70.58-21.572,104.012-22.734c-11.635-36.841-22.898-64.137-32.736-74.223  c-99.32-48.087-211.023,49.195-217.838,80.411c-6.816,31.218,247.314,415.399,267.24,429.954  c19.926,14.553,66.876-10.155,73.704-25.618c-1.62-14.166-12.306-75.353-27.399-149.899  C533.66,660.038,524.556,662.222,524.556,662.222z"/>
</svg>