<svg id="Capa_1" enable-background="new 0 0 512 512" height="512" viewBox="0 0 512 512" width="512" xmlns="http://www.w3.org/2000/svg"><g><g><path d="m92.858 479.436v-268.747l40.786 26.73 40.785-26.73 40.786 26.73 40.785-26.73 40.786 26.73 40.785-26.73 40.786 26.73 40.786-26.73v268.748c0 13.834-11.215 25.049-25.049 25.049h-276.187c-13.834-.001-25.049-11.215-25.049-25.05z" fill="#ffc89f"/></g><g><path d="m401.107 222.509v256.928c0 13.834-11.215 25.049-25.049 25.049h18.035c13.834 0 25.049-11.215 25.049-25.049v-268.748z" fill="#f7b081"/></g><path d="m133.644 237.419 40.785-26.73 40.786 26.73 3.906-2.56c1.206-20.193 1.852-40.39 1.852-59.851 0-120.829-24.772-167.493-55.329-167.493s-55.329 46.664-55.329 167.493c0 15.623.417 31.722 1.205 47.911z" fill="#e7a561"/><g><path d="m165.643 7.515c-3.071 0-6.083.48-9.018 1.451 26.268 8.687 46.311 57.357 46.311 166.042 0 17.385-.519 35.357-1.488 53.389l13.766 9.022 3.906-2.56c1.206-20.193 1.852-40.39 1.852-59.851 0-120.829-24.771-167.493-55.329-167.493z" fill="#e49542"/></g><path d="m228.767 228.537 27.233-17.848 40.786 26.73 40.785-26.73 22.839 14.968c3.516-10.569 5.9-22.333 6.681-34.883 2.476-39.786-34.467-56.049-73-56.049s-75.477 16.264-73.001 56.049c.853 13.702 3.614 26.467 7.677 37.763z" fill="#dd636e"/><g><g><g><path d="m294.091 134.725c-3.022 0-6.034.1-9.018.304 35.067 2.392 66.265 19.08 63.983 55.746-.544 8.744-1.881 17.094-3.822 24.937l15.176 9.946c3.516-10.569 5.9-22.333 6.681-34.883 2.476-39.787-34.467-56.05-73-56.05z" fill="#da4a54"/></g></g></g><path d="m394.584 137.624c2.179-4.592 3.402-9.726 3.402-15.147 0-14.777-9.062-27.432-21.93-32.726 2.129-4.549 3.325-9.622 3.325-14.976 0-17.717-13.023-32.391-30.018-34.974-1.755-17.899-16.845-31.885-35.205-31.885-18.38 0-33.483 14.017-35.21 31.945-1.857-.301-3.761-.464-5.703-.464-19.539 0-35.379 15.84-35.379 35.379 0 5.354 1.196 10.427 3.325 14.976-12.868 5.294-21.93 17.949-21.93 32.726 0 9.004 3.369 17.217 8.908 23.462-4.441 8.112-6.969 17.421-6.969 27.321 0 2.551.054 5.04.149 7.481 3.849-32.501 37.627-46.015 72.74-46.015 38.533 0 75.477 16.264 73 56.049-.781 12.55-3.164 24.314-6.681 34.883l17.947 11.762 17.831-11.686c6.866-14.428 10.927-32.436 10.927-52.474.002-13.491-4.695-25.877-12.529-35.637z" fill="#b7e445"/><g><path d="m394.584 137.624c2.179-4.592 3.402-9.726 3.402-15.147 0-14.777-9.062-27.432-21.93-32.726 2.129-4.549 3.325-9.622 3.325-14.976 0-17.717-13.023-32.391-30.018-34.974-1.755-17.899-16.845-31.885-35.205-31.885-9.025 0-17.254 3.385-23.503 8.947 2.23-.441 4.534-.675 6.893-.675 18.36 0 33.451 13.986 35.205 31.885 16.995 2.583 30.018 17.258 30.018 34.974 0 5.354-1.196 10.427-3.325 14.976 12.868 5.294 21.93 17.949 21.93 32.726 0 5.421-1.223 10.555-3.402 15.147 7.834 9.76 12.531 22.146 12.531 35.635 0 20.038-4.061 38.046-10.927 52.474l-3.216 2.108 1.994 1.307 17.831-11.686c6.866-14.428 10.927-32.436 10.927-52.474.001-13.49-4.696-25.876-12.53-35.636z" fill="#9dc63d"/></g><g><path d="m419.142 368.111c4.15 0 7.515-3.364 7.515-7.515v-149.907c0-5.854-6.722-9.502-11.634-6.285l-4.406 2.888c2.641-10.682 4.013-22.159 4.013-34.033 0-13.11-4.053-25.986-11.489-36.724 1.568-4.503 2.36-9.214 2.36-14.059 0-15.002-7.706-28.612-20.123-36.361 1.008-3.671 1.517-7.464 1.517-11.341 0-19.134-12.966-35.955-30.947-41.199-4.411-19.256-21.5-33.176-41.791-33.176-19.702 0-36.369 13.107-41.367 31.483-23.443.244-42.439 19.391-42.439 42.891 0 3.876.509 7.67 1.517 11.341-3.086 1.926-5.88 4.215-8.338 6.797-2.764-19.514-6.675-36.091-11.726-49.596-13.39-35.8-32.493-43.315-46.161-43.315-19.142 0-44.435 14.281-56.226 82.315-.709 4.089 2.031 7.979 6.121 8.687 4.092.711 7.978-2.031 8.687-6.121 7.807-45.045 22.517-69.852 41.418-69.852 16.146 0 26.36 18.247 32.085 33.553 10.437 27.905 15.73 70.441 15.73 126.425 0 16.486-.468 33.729-1.39 51.364l-33.519-21.968c-2.502-1.639-5.737-1.639-8.239 0l-36.666 24.03-14.793-9.695c-.675-14.993-1.021-29.688-1.021-43.731 0-22.298.863-42.766 2.567-60.835.389-4.132-2.644-7.798-6.776-8.187-4.139-.394-7.798 2.644-8.187 6.776-1.747 18.536-2.633 39.478-2.633 62.246 0 10.874.206 22.133.605 33.609l-6.428-4.213c-4.911-3.218-11.634.432-11.634 6.285v268.748c0 17.955 14.608 32.564 32.564 32.564h276.186c17.956 0 32.564-14.608 32.564-32.564v-88.781c0-4.15-3.365-7.515-7.515-7.515s-7.515 3.365-7.515 7.515v88.781c0 9.668-7.866 17.534-17.534 17.534h-276.187c-9.668 0-17.534-7.866-17.534-17.534v-254.838l29.152 19.106c2.502 1.639 5.737 1.639 8.239 0l36.666-24.03 36.666 24.03c2.501 1.638 5.736 1.639 8.239 0l36.665-24.03 36.666 24.03c2.502 1.639 5.737 1.639 8.239 0l36.666-24.03 36.666 24.03c2.501 1.638 5.736 1.639 8.239 0l29.151-19.105v135.998c0 4.15 3.365 7.514 7.515 7.514zm-40.785-139.677-9.11-5.97c2.873-10.021 4.676-20.493 5.344-31.223 1.092-17.544-4.73-32.673-16.836-43.753-3.062-2.802-7.815-2.592-10.617.47s-2.591 7.815.47 10.617c8.762 8.02 12.794 18.696 11.983 31.732-.5 8.032-1.712 15.89-3.584 23.479l-14.317-9.383c-2.502-1.639-5.737-1.639-8.239 0l-36.666 24.03-36.667-24.03c-2.501-1.639-5.737-1.639-8.238 0l-18.931 12.407c-2.324-8.503-3.792-17.379-4.36-26.503-.742-11.917 2.564-21.878 9.825-29.605 8.907-9.479 23.865-15.687 42.124-17.725 4.273 7.271 5.726 14.634 6.144 19.915-4.946-1.39-8.018-3.682-8.026-3.687-3.255-2.574-7.981-2.021-10.555 1.235s-2.021 7.982 1.235 10.555c1.031.816 10.489 7.966 24.753 7.966s23.722-7.151 24.753-7.966c3.256-2.574 3.809-7.299 1.235-10.555s-7.301-3.809-10.555-1.235c-.041.033-2.977 2.257-7.798 3.642-.34-5.523-1.498-12.867-4.709-20.561 9.661.225 18.954 1.552 27.033 3.893 3.985 1.155 8.154-1.139 9.31-5.126 1.155-3.986-1.139-8.154-5.126-9.31-10.38-3.008-21.866-4.534-34.142-4.534-2.096 0-4.156.056-6.195.142-4.109-4.85-9.396-9.452-16.204-13.407-3.588-2.084-8.187-.867-10.273 2.722-2.085 3.589-.866 8.188 2.722 10.273 1.488.865 2.87 1.775 4.172 2.715-12.985 2.621-24.202 7.311-33.053 13.86-.316-.924-.794-1.801-1.469-2.562-4.524-5.101-7.016-11.662-7.016-18.475 0-11.341 6.781-21.459 17.275-25.776 3.906-1.607 5.741-6.301 3.947-10.135-1.736-3.71-2.617-7.678-2.617-11.791 0-15.365 12.5-27.864 27.864-27.864 3.065 0 6.251 1.121 9.148-.376 2.236-1.156 3.794-3.447 4.035-5.954 1.381-14.338 13.302-25.151 27.73-25.151 14.404 0 26.323 10.793 27.726 25.104.336 3.422 2.951 6.18 6.35 6.697 13.473 2.048 23.632 13.889 23.632 27.545 0 4.114-.88 8.082-2.616 11.791-1.794 3.834.041 8.528 3.947 10.135 10.494 4.317 17.275 14.434 17.275 25.776 0 4.17-.901 8.182-2.677 11.926-1.234 2.602-.874 5.68.929 7.926 7.116 8.865 10.877 19.561 10.877 30.931 0 17.399-3.232 33.724-9.348 47.379z"/><path d="m177.928 98.885c4.15 0 7.515-3.364 7.515-7.515 0-4.15-3.364-7.515-7.515-7.515h-24.57c-4.15 0-7.515 3.364-7.515 7.515 0 4.15 3.365 7.515 7.515 7.515z"/><path d="m137.639 131.427c0 4.15 3.365 7.515 7.515 7.515h40.978c4.15 0 7.515-3.365 7.515-7.515s-3.365-7.515-7.515-7.515h-40.978c-4.15 0-7.515 3.365-7.515 7.515z"/><path d="m145.154 178.998h40.978c4.15 0 7.515-3.365 7.515-7.515s-3.365-7.515-7.515-7.515h-40.978c-4.15 0-7.515 3.364-7.515 7.515 0 4.15 3.365 7.515 7.515 7.515z"/></g></g></svg>